<?xml version="1.0" encoding="UTF-8"?>
<svg id="Layer_1" xmlns="http://www.w3.org/2000/svg" version="1.1" viewBox="0 0 63.1 64">
  <!-- Generator: Adobe Illustrator 29.0.1, SVG Export Plug-In . SVG Version: 2.1.0 Build 192)  -->
  <defs>
    <style>
      .st0 {
        fill: #fff;
      }
    </style>
  </defs>
  <path class="st0" d="M31.5,6h4.5c2.4,0,3,.3,3.8,1.8.6.9.9,1.9,1.3,3.1l1.3-.2c-.2-2-.4-5-.4-6.5-.7,0-2.2,0-6,0h-13.4v1.2c3.4.3,3.8.5,3.8,4.2v29.2c-.4.3-.7.7-.6,1.4,0,.3.3.7.3.7,0,.1-1.8,1.3-1.6,2.2-5.3-.6-7.9,6.4-3.2,9.3.7.4,1.8.5,2.2.8.2.2.8,1.2,1.2,1.6.5.4,1.1.6,1.6,1-2,2.2.2,5.7,3.1,4.3,1.7-.8,1.9-3.2.5-4.3.9-.5,1.5-1,2.3-1.7.2-.2.5-.9.6-.9.6-.4,1.7-.2,2.8-1.1,3.9-3.2,1.1-9.6-3.9-8.9,0-.9-.8-1.8-1.6-2.1.5-.7.7-1.1.2-1.9,0-.1-.2-.2-.3-.3v-20h5.3c3,0,3.3.7,3.9,3.6h1.3v-8.9h-1.3c-.6,3-.8,3.5-3.9,3.5h-5.3V7.4c0-1.2.1-1.4,1.4-1.4ZM23.1,51.6c-2.3-.6-3.4-3.2-2.1-5.3,1.2-1.9,4.2-2.3,5.6-.4-2.4,1-3.7,3.1-3.5,5.7ZM24.7,51.5c-.5-1.7.9-4.1,2.8-4.2.6,1.7-.9,4.1-2.8,4.2ZM32,51.6c-2-.1-3.2-2.3-3-4.2,2.1.1,3.2,2.3,3,4.2ZM34.7,51c-1.8,1.3-1.1-.2-1.4-1.6-.3-1.4-2-3.2-3.4-3.5,3.3-4.2,9,2.1,4.8,5Z"/>
</svg>