<?xml version="1.0" encoding="UTF-8"?>
<svg id="Layer_1" xmlns="http://www.w3.org/2000/svg" version="1.1" viewBox="0 0 128 128">
  <!-- Generator: Adobe Illustrator 29.0.1, SVG Export Plug-In . SVG Version: 2.1.0 Build 192)  -->
  <defs>
    <style>
      .st0 {
        fill: #010101;
      }
    </style>
  </defs>
  <path class="st0" d="M65.6,9.3h9.4c4.9,0,6.2.7,7.9,3.7,1.2,1.9,1.9,4,2.7,6.5l2.7-.3c-.4-4.2-.8-10.4-.9-13.5-1.5,0-4.5.2-12.4.2h-27.9v2.5c7,.7,7.9,1.1,7.9,8.7v60.7c-.7.6-1.4,1.4-1.2,2.9,0,.6.7,1.4.7,1.5,0,.3-3.8,2.7-3.3,4.5-11-1.2-16.3,13.4-6.7,19.3,1.5.9,3.7,1,4.6,1.6.5.3,1.6,2.4,2.5,3.2,1,.9,2.2,1.3,3.3,2.2-4.2,4.7.5,11.8,6.5,9,3.4-1.6,4-6.6,1.1-9,1.9-1.1,3.2-2,4.7-3.6.4-.4,1-1.8,1.2-1.9,1.3-.8,3.6-.4,5.9-2.3,8.2-6.7,2.3-19.9-8.1-18.5.1-1.9-1.6-3.7-3.3-4.3,1.1-1.4,1.5-2.3.5-3.9-.2-.3-.4-.5-.7-.6v-41.6h10.9c6.2,0,6.9,1.4,8,7.6h2.7v-18.4h-2.6c-1.3,6.2-1.8,7.2-8.1,7.2h-10.9V12.1c0-2.5.3-2.8,2.8-2.8h0ZM48.2,103.9c-4.8-1.2-7-6.7-4.3-11,2.6-4,8.7-4.8,11.5-.8-4.9,2.1-7.7,6.3-7.2,11.8ZM51.4,103.9c-1.1-3.6,1.8-8.5,5.7-8.6,1.3,3.6-1.8,8.5-5.7,8.6ZM66.6,103.9c-4.2-.2-6.6-4.7-6.2-8.7,4.3.2,6.7,4.7,6.2,8.7ZM72.2,102.7c-3.7,2.6-2.3-.5-2.8-3.2-.6-2.9-4.1-6.6-7.1-7.2,6.9-8.8,18.8,4.3,9.9,10.4Z"/>
</svg>