<?xml version="1.0" encoding="UTF-8"?>
<svg id="Layer_1" xmlns="http://www.w3.org/2000/svg" version="1.1" viewBox="0 0 1944 765">
  <!-- Generator: Adobe Illustrator 29.0.1, SVG Export Plug-In . SVG Version: 2.1.0 Build 192)  -->
  <defs>
    <style>
      .st0 {
        fill: #010101;
      }
    </style>
  </defs>
  <path class="st0" d="M213.5,74.1c70.5,0,115,14,146,43.5,24.5,24,42.5,59,42.5,107s-24,106-62.5,135c-38,28.5-86.5,39.5-148,39.5h-117v-14c43-4,45-7.5,45-48.5v-199.5c0-43-6-45-45-49v-14h139ZM163,332.6c0,37.5,16,48,53.5,48,90,0,136-61.5,136-149s-18.5-96-58-120c-23-14.5-52-20-85.5-20s-34.5,3-39.5,7c-4.5,3-6.5,8.5-6.5,28v206Z"/>
  <path class="st0" d="M604.9,405.1c-7.5,0-18.5-4-23.5-9.5-6.5-6.5-9.5-13.5-12-22.5-20,13.5-44.5,32-60,32-35.5,0-61-29.5-61-61.5s13.5-40.5,41-50c30.5-10.5,68-23.5,79-32.5v-10c0-35.5-18-56-44-56s-18.5,5.5-23.5,11.5c-5.5,7-9,18-13.5,32.5-2.5,8-7,11.5-14.5,11.5s-22-10-22-22,6.5-13,16.5-20c14.5-10.5,43.5-29,72-35,15,0,30.5,4.5,42,13.5,17.5,15,25.5,32,25.5,58v96.5c0,23,8.5,30,17.5,30s12.5-2.5,18-5.5l5,14-42.5,25ZM568.4,278.6c-11,5.5-35,16-46.5,21-19,8.5-30.5,18-30.5,36.5,0,26.5,20,38.5,36,38.5s31-8,41-18v-78Z"/>
  <path class="st0" d="M920.4,399.1v-14c31.5-3,35-5.5,35-39.5v-103c0-31-1.5-33-31.5-38v-12c26-4.5,49.5-11,71-20v173c0,34,3.5,36.5,36,39.5v14h-110.5ZM972.4,123.6c-14,0-26.5-12.5-26.5-26.5s12.5-27.5,27-27.5,25.5,11.5,25.5,27.5-11.5,26.5-26,26.5Z"/>
  <path class="st0" d="M1121.4,326.1c-12,9.5-16.5,19-16.5,25,0,9,8.5,19,31,19s39.5-.5,56-.5c32,0,73,10.5,73,60s-61.5,101-128,101-87-33-88-62.5c0-11,4.5-20.5,12.5-28.5,10-10.5,29.5-27,41-36-18-5-31-16.5-37.5-27-4.5-7.5-6-16.5-6-21.5,19-7,36-21,46-34.5l16.5,5.5ZM1145.4,331.1c-46.5,0-85-28.5-85-75.5s51-83.5,90-83.5,33,4.5,48,12.5c23,0,53-4,67-7.5l3,4.5c-3,8-11,22-18.5,26.5-7.5,0-24-2-31-2.5,8.5,11.5,14.5,27.5,14.5,45.5,0,54.5-45,80-88,80ZM1156.9,405.1c-24.5,0-35.5,3-44.5,10.5-14,11.5-24,26.5-24,41,0,27.5,28.5,48,67,48s74.5-24.5,74.5-56.5-8-30.5-22-36.5c-12.5-5.5-30-6.5-51-6.5ZM1145.4,188.1c-22.5,0-42.5,20.5-42.5,60s20,67,47.5,67c22-1,41.5-19.5,41.5-60s-18.5-67-46.5-67Z"/>
  <path class="st0" d="M1442.9,405.1c-7.5,0-18.5-4-23.5-9.5-6.5-6.5-9.5-13.5-12-22.5-20,13.5-44.5,32-60,32-35.5,0-61-29.5-61-61.5s13.5-40.5,41-50c30.5-10.5,68-23.5,79-32.5v-10c0-35.5-18-56-44-56s-18.5,5.5-23.5,11.5c-5.5,7-9,18-13.5,32.5-2.5,8-7,11.5-14.5,11.5s-22-10-22-22,6.5-13,16.5-20c14.5-10.5,43.5-29,72-35,15,0,30.5,4.5,42,13.5,17.5,15,25.5,32,25.5,58v96.5c0,23,8.5,30,17.5,30s12.5-2.5,18-5.5l5,14-42.5,25ZM1406.4,278.6c-11,5.5-35,16-46.5,21-19,8.5-30.5,18-30.5,36.5,0,26.5,20,38.5,36,38.5s31-8,41-18v-78Z"/>
  <path class="st0" d="M1621.4,399.1h-115v-14c31.5-3,34.5-5.5,34.5-38v-104c0-33-2-34.5-31-38v-12.5c24.5-4,47-10,70.5-20.5v55c17.5-26,38.5-53.5,63.5-53.5s29,11.5,29,24-8,22.5-17,27.5c-5,3-9,2.5-13-1-7.5-7.5-13.5-12.5-22.5-12.5s-29,15.5-40,41v94c0,33,2.5,35.5,41,38.5v14Z"/>
  <path class="st0" d="M1801.4,173.6c62.5,0,109,47.5,109,112s-60,119.5-109,119.5-111-55.5-111-111.5c0-81.5,63.5-120,111-120ZM1795.4,190.6c-30.5,0-58,29.5-58,87.5s28,109.5,69,109.5,57-22.5,57-91-24-106-68-106Z"/>
  <path class="st0" d="M760.9,92.3h54c28.3,0,35.8,4,45.4,21.2,7.1,11.1,11.1,23.2,15.6,37.3l15.6-2c-2.5-24.2-4.5-59.5-5-77.7-8.6.5-25.7,1-71.1,1h-159.9v14.1c40.4,4,45.4,6.1,45.4,50v348.1c-4.2,3.3-8,7.8-6.8,16.7.5,3.3,3.9,7.8,3.9,8.5-.1,1.6-21.6,15.2-18.7,25.6-63.3-6.8-93.6,76.7-38.5,110.8,8.6,5.3,21.1,5.7,26.2,9.1,2.9,1.8,9.1,13.8,14.6,18.6,5.7,5,12.8,7.7,18.7,12.4-24.3,26.8,2.9,67.7,37.2,51.7,19.7-9.2,22.8-37.7,6.5-51.7,11.1-6.1,18.3-11.5,26.9-20.8,2.3-2.5,5.9-10.4,6.8-10.9,7.7-4.6,20.6-2.2,33.7-13,47-38.6,13.1-114.2-46.6-106,.8-11-9.4-21.3-18.8-24.9,6.3-7.8,8.5-13.1,2.7-22.2-1-1.6-2.4-2.8-4-3.7v-238.8h62.6c35.8,0,39.4,8.1,45.9,43.4h15.6v-105.5h-15.1c-7.6,35.3-10.1,41.4-46.4,41.4h-62.6v-116.6c0-14.6,1.5-16.1,16.1-16.1ZM660.9,635c-27.6-7.1-40-38.7-24.6-63,14.8-23.2,50-27.8,66.1-4.5-28.1,12.2-44,36.4-41.5,67.5ZM679.8,634.8c-6.5-20.5,10.3-49,32.8-49.5,7.3,20.6-10.4,48.8-32.8,49.5ZM766.8,635c-24.2-1.3-38-27.2-35.3-49.9,24.8,1.4,38.2,26.8,35.3,49.9ZM798.7,628.4c-21.5,15-13-3-16.2-18.5-3.4-16.9-23.6-37.8-40.6-41.4,39.8-50.2,107.8,24.5,56.8,59.9Z"/>
</svg>